<svg width="117" height="25" viewBox="0 0 117 25" fill="none" xmlns="http://www.w3.org/2000/svg">
<g clip-path="url(#clip0)">
<path d="M10.1507 19.8752C9.30851 19.385 8.7766 18.4492 8.7766 17.4688C8.7766 16.3101 10.0177 15.5971 10.9929 16.1764L12.8989 17.2905V14.483C12.8989 13.3689 12.3227 12.344 11.3475 11.8092L0 5.21387V18.2263L11.4362 24.8663C12.1011 25.2673 12.9433 24.7771 12.9433 24.0196V21.524L10.1507 19.8752Z" fill="#AF59C1"/>
<path d="M10.2836 18.8057C10.0176 18.6275 9.84033 18.3601 9.84033 18.0482V17.7362C9.84033 17.246 10.3722 16.9341 10.7712 17.2015C11.0371 17.3797 11.2144 17.6471 11.2144 17.959V18.271C11.2144 18.7166 10.6825 19.0286 10.2836 18.8057Z" fill="#AF59C1"/>
<path d="M10.2395 0.980406V1.78255L19.415 7.13014C20.3902 7.70946 21.0108 8.73442 21.0108 9.89306V18.5829L21.6757 18.984C22.3406 19.385 23.1828 18.8948 23.1828 18.1373V8.55616C23.1828 7.44208 22.6065 6.41713 21.6313 5.88237L11.7023 0.133704C11.0374 -0.267365 10.2395 0.222831 10.2395 0.980406Z" fill="#EF4F24"/>
<path d="M6.82617 2.98578V3.74335L16.046 9.09095C17.0212 9.67027 17.6418 10.6952 17.6418 11.8539V20.4991L18.3067 20.8557C18.9716 21.2567 19.8138 20.7665 19.8138 20.009V10.517C19.8138 9.40289 19.2375 8.37794 18.2623 7.84318L8.28894 2.13908C7.62404 1.73801 6.82617 2.2282 6.82617 2.98578Z" fill="#F89D1D"/>
<path d="M3.41309 4.94647V5.70405L12.6329 11.0516C13.6081 11.5864 14.1844 12.6559 14.1844 13.8146V22.5044L14.8493 22.9055C15.5141 23.3065 16.3563 22.8163 16.3563 22.0588V12.5222C16.3563 11.4081 15.7801 10.3832 14.8049 9.84843L4.87585 4.09977C4.25528 3.6987 3.41309 4.1889 3.41309 4.94647Z" fill="#35C1DB"/>
<path d="M69.9911 9.53662H69.3262V17.7363H65.3368V10.3833C65.3368 9.93769 64.9822 9.53662 64.4946 9.53662H63.8297V17.7363H59.8403V10.3833C59.8403 9.93769 59.4857 9.53662 58.9981 9.53662H58.3333V18.2265C58.3333 18.6721 58.6879 19.0732 59.1754 19.0732H70.7889V10.3833C70.7889 9.89313 70.4343 9.53662 69.9911 9.53662Z" fill="white"/>
<path d="M86.968 10.3833V12.3441C86.968 15.7755 86.3031 17.4243 84.7517 17.7808V19.1177H84.796C87.3226 18.8503 88.4308 16.8004 88.4308 12.3441V10.6953H92.4645V18.1819C92.4645 18.6275 92.8191 19.0286 93.3067 19.0286H93.9716V9.53662H87.8545C87.3226 9.53662 86.968 9.89313 86.968 10.3833Z" fill="white"/>
<path d="M113.165 14.1712V13.9929L116.268 9.58118V9.53662H115.337C114.894 9.53662 114.495 9.75944 114.229 10.1159L111.968 13.5028L111.924 13.5473H110.239V10.4279C110.239 9.93769 109.84 9.58118 109.397 9.58118H108.777V19.0732H110.284V14.7951H112.012L114.583 18.4938C114.849 18.8503 115.248 19.0732 115.691 19.0732H116.755L113.165 14.1712Z" fill="white"/>
<path d="M50.8422 9.26904C48.0497 9.26904 45.7891 11.5418 45.7891 14.3493C45.7891 17.1567 48.0497 19.4295 50.8422 19.4295C53.6348 19.4295 55.8954 17.1567 55.8954 14.3493C55.8954 11.5418 53.6348 9.26904 50.8422 9.26904ZM50.8422 17.8698C48.8919 17.8698 47.2962 16.2655 47.2962 14.3047C47.2962 12.3439 48.8919 10.7396 50.8422 10.7396C52.7926 10.7396 54.3883 12.3439 54.3883 14.3047C54.3883 16.31 52.7926 17.8698 50.8422 17.8698Z" fill="white"/>
<path d="M99.2465 7.13014C99.6897 7.13014 100 6.77364 100 6.37257C100 5.92693 99.6454 5.61499 99.2465 5.61499C98.8032 5.61499 98.4929 5.9715 98.4929 6.37257C98.4929 6.77364 98.8032 7.13014 99.2465 7.13014Z" fill="white"/>
<path d="M103.236 7.13014C103.679 7.13014 103.989 6.77364 103.989 6.37257C103.989 5.92693 103.635 5.61499 103.236 5.61499C102.793 5.61499 102.482 5.9715 102.482 6.37257C102.438 6.77364 102.793 7.13014 103.236 7.13014Z" fill="white"/>
<path d="M106.117 12.5223C105.94 12.0767 105.762 11.6756 105.452 11.3191C104.521 9.98218 102.97 9.22461 101.374 9.22461H101.33C98.6702 9.26917 96.4982 11.3636 96.3653 13.9929C96.2766 15.4189 96.7642 16.7558 97.7394 17.7362C98.7145 18.7611 100 19.2959 101.374 19.2959C103.236 19.2959 104.92 18.271 105.807 16.6221V16.5775L105.23 16.2656C105.097 16.1765 104.92 16.1319 104.787 16.1319C104.521 16.1319 104.255 16.2656 104.122 16.4439C103.457 17.2906 102.438 17.7362 101.374 17.7362C100.399 17.7362 99.4238 17.2906 98.7589 16.5775L98.7145 16.533L106.117 12.5223ZM98.094 15.3298L98.0053 15.3743L97.961 15.2852C97.8723 14.9287 97.828 14.6168 97.828 14.2603C97.828 12.2995 99.4238 10.6952 101.374 10.6952C102.438 10.6952 103.413 11.1408 104.078 11.943L104.167 12.0321L98.094 15.3298Z" fill="white"/>
<path d="M44.1047 5.70412L44.149 5.61499H43.2181C42.7306 5.61499 42.2873 5.88237 42.0657 6.28344L39.0072 11.3637H36.7022V6.46169C36.7022 6.01606 36.3476 5.61499 35.86 5.61499H35.1064V19.0285H36.7022V12.7451H39.0072L42.243 18.3601C42.4646 18.7612 42.9522 19.0285 43.4398 19.0285H44.4593L40.3369 12.0767L44.1047 5.70412Z" fill="white"/>
<path d="M82.9344 12.5667C82.7571 12.1211 82.5798 11.72 82.2695 11.3635C81.3387 10.0266 79.7872 9.26904 78.1915 9.26904H78.1472C75.4876 9.31361 73.3156 11.4081 73.1826 14.0373C73.094 15.4633 73.5816 16.8002 74.5567 17.7806C75.5319 18.8056 76.8174 19.3403 78.1915 19.3403C80.0532 19.3403 81.7376 18.3154 82.6241 16.6665V16.622L82.0479 16.31C81.9149 16.2209 81.7376 16.1764 81.6046 16.1764C81.3387 16.1764 81.0727 16.31 80.9397 16.4883C80.2748 17.335 79.2553 17.7806 78.1915 17.7806C77.2163 17.7806 76.2411 17.335 75.5762 16.622L75.5319 16.5774L82.9344 12.5667ZM74.9114 15.3742L74.8227 15.4188L74.7784 15.3297C74.6897 14.9731 74.6454 14.6612 74.6454 14.3047C74.6454 12.3439 76.2411 10.7396 78.1915 10.7396C79.2553 10.7396 80.2305 11.1853 80.8954 11.9874L80.9397 12.032L74.9114 15.3742Z" fill="white"/>
</g>
<defs>
<clipPath id="clip0">
<rect width="116.667" height="25" fill="white"/>
</clipPath>
</defs>
</svg>